<svg width="524" height="116" viewBox="0 0 524 116" fill="none" xmlns="http://www.w3.org/2000/svg">
<rect y="18" width="90" height="80" rx="15" fill="#FA7417"/>
<path d="M112.886 93V23.1818H125.227V49.2955H125.739C126.375 48.0227 127.273 46.6705 128.432 45.2386C129.591 43.7841 131.159 42.5455 133.136 41.5227C135.114 40.4773 137.636 39.9545 140.705 39.9545C144.75 39.9545 148.398 40.9886 151.648 43.0568C154.92 45.1023 157.511 48.1364 159.42 52.1591C161.352 56.1591 162.318 61.0682 162.318 66.8864C162.318 72.6364 161.375 77.5227 159.489 81.5455C157.602 85.5682 155.034 88.6364 151.784 90.75C148.534 92.8636 144.852 93.9205 140.739 93.9205C137.739 93.9205 135.25 93.4205 133.273 92.4205C131.295 91.4205 129.705 90.2159 128.5 88.8068C127.318 87.375 126.398 86.0227 125.739 84.75H125.023V93H112.886ZM124.989 66.8182C124.989 70.2045 125.466 73.1705 126.42 75.7159C127.398 78.2614 128.795 80.25 130.614 81.6818C132.455 83.0909 134.682 83.7955 137.295 83.7955C140.023 83.7955 142.307 83.0682 144.148 81.6136C145.989 80.1364 147.375 78.125 148.307 75.5795C149.261 73.0114 149.739 70.0909 149.739 66.8182C149.739 63.5682 149.273 60.6818 148.341 58.1591C147.409 55.6364 146.023 53.6591 144.182 52.2273C142.341 50.7955 140.045 50.0795 137.295 50.0795C134.659 50.0795 132.42 50.7727 130.58 52.1591C128.739 53.5455 127.341 55.4886 126.386 57.9886C125.455 60.4886 124.989 63.4318 124.989 66.8182ZM169.93 93V40.6364H181.896V49.3636H182.441C183.396 46.3409 185.032 44.0114 187.35 42.375C189.691 40.7159 192.361 39.8864 195.361 39.8864C196.043 39.8864 196.805 39.9205 197.646 39.9886C198.509 40.0341 199.225 40.1136 199.793 40.2273V51.5795C199.271 51.3977 198.441 51.2386 197.305 51.1023C196.191 50.9432 195.111 50.8636 194.066 50.8636C191.816 50.8636 189.793 51.3523 187.998 52.3295C186.225 53.2841 184.827 54.6136 183.805 56.3182C182.782 58.0227 182.271 59.9886 182.271 62.2159V93H169.93ZM219.243 94.0568C215.925 94.0568 212.936 93.4659 210.277 92.2841C207.641 91.0795 205.55 89.3068 204.004 86.9659C202.481 84.625 201.72 81.7386 201.72 78.3068C201.72 75.3523 202.266 72.9091 203.356 70.9773C204.447 69.0455 205.936 67.5 207.822 66.3409C209.709 65.1818 211.834 64.3068 214.197 63.7159C216.584 63.1023 219.05 62.6591 221.595 62.3864C224.663 62.0682 227.152 61.7841 229.061 61.5341C230.97 61.2614 232.356 60.8523 233.22 60.3068C234.106 59.7386 234.55 58.8636 234.55 57.6818V57.4773C234.55 54.9091 233.788 52.9205 232.266 51.5114C230.743 50.1023 228.55 49.3977 225.686 49.3977C222.663 49.3977 220.266 50.0568 218.493 51.375C216.743 52.6932 215.561 54.25 214.947 56.0455L203.425 54.4091C204.334 51.2273 205.834 48.5682 207.925 46.4318C210.016 44.2727 212.572 42.6591 215.595 41.5909C218.618 40.5 221.959 39.9545 225.618 39.9545C228.141 39.9545 230.652 40.25 233.152 40.8409C235.652 41.4318 237.936 42.4091 240.004 43.7727C242.072 45.1136 243.731 46.9432 244.981 49.2614C246.254 51.5795 246.891 54.4773 246.891 57.9545V93H235.027V85.8068H234.618C233.868 87.2614 232.811 88.625 231.447 89.8977C230.106 91.1477 228.413 92.1591 226.368 92.9318C224.345 93.6818 221.97 94.0568 219.243 94.0568ZM222.447 84.9886C224.925 84.9886 227.072 84.5 228.891 83.5227C230.709 82.5227 232.106 81.2045 233.084 79.5682C234.084 77.9318 234.584 76.1477 234.584 74.2159V68.0455C234.197 68.3636 233.538 68.6591 232.606 68.9318C231.697 69.2045 230.675 69.4432 229.538 69.6477C228.402 69.8523 227.277 70.0341 226.163 70.1932C225.05 70.3523 224.084 70.4886 223.266 70.6023C221.425 70.8523 219.777 71.2614 218.322 71.8295C216.868 72.3977 215.72 73.1932 214.879 74.2159C214.038 75.2159 213.618 76.5114 213.618 78.1023C213.618 80.375 214.447 82.0909 216.106 83.25C217.766 84.4091 219.879 84.9886 222.447 84.9886ZM256.42 93V40.6364H268.761V93H256.42ZM262.624 33.2045C260.67 33.2045 258.988 32.5568 257.579 31.2614C256.17 29.9432 255.465 28.3636 255.465 26.5227C255.465 24.6591 256.17 23.0795 257.579 21.7841C258.988 20.4659 260.67 19.8068 262.624 19.8068C264.601 19.8068 266.283 20.4659 267.67 21.7841C269.079 23.0795 269.783 24.6591 269.783 26.5227C269.783 28.3636 269.079 29.9432 267.67 31.2614C266.283 32.5568 264.601 33.2045 262.624 33.2045ZM298.003 93.9205C293.889 93.9205 290.207 92.8636 286.957 90.75C283.707 88.6364 281.139 85.5682 279.253 81.5455C277.366 77.5227 276.423 72.6364 276.423 66.8864C276.423 61.0682 277.378 56.1591 279.287 52.1591C281.219 48.1364 283.821 45.1023 287.094 43.0568C290.366 40.9886 294.014 39.9545 298.037 39.9545C301.105 39.9545 303.628 40.4773 305.605 41.5227C307.582 42.5455 309.15 43.7841 310.31 45.2386C311.469 46.6705 312.366 48.0227 313.003 49.2955H313.514V23.1818H325.889V93H313.753V84.75H313.003C312.366 86.0227 311.446 87.375 310.241 88.8068C309.037 90.2159 307.446 91.4205 305.469 92.4205C303.491 93.4205 301.003 93.9205 298.003 93.9205ZM301.446 83.7955C304.06 83.7955 306.287 83.0909 308.128 81.6818C309.969 80.25 311.366 78.2614 312.321 75.7159C313.275 73.1705 313.753 70.2045 313.753 66.8182C313.753 63.4318 313.275 60.4886 312.321 57.9886C311.389 55.4886 310.003 53.5455 308.162 52.1591C306.344 50.7727 304.105 50.0795 301.446 50.0795C298.696 50.0795 296.4 50.7955 294.56 52.2273C292.719 53.6591 291.332 55.6364 290.4 58.1591C289.469 60.6818 289.003 63.5682 289.003 66.8182C289.003 70.0909 289.469 73.0114 290.4 75.5795C291.355 78.125 292.753 80.1364 294.594 81.6136C296.457 83.0682 298.741 83.7955 301.446 83.7955ZM336.16 112.636V40.6364H348.296V49.2955H349.012C349.648 48.0227 350.546 46.6705 351.705 45.2386C352.864 43.7841 354.432 42.5455 356.41 41.5227C358.387 40.4773 360.91 39.9545 363.978 39.9545C368.023 39.9545 371.671 40.9886 374.921 43.0568C378.194 45.1023 380.785 48.1364 382.694 52.1591C384.626 56.1591 385.591 61.0682 385.591 66.8864C385.591 72.6364 384.648 77.5227 382.762 81.5455C380.876 85.5682 378.307 88.6364 375.057 90.75C371.807 92.8636 368.126 93.9205 364.012 93.9205C361.012 93.9205 358.523 93.4205 356.546 92.4205C354.569 91.4205 352.978 90.2159 351.773 88.8068C350.591 87.375 349.671 86.0227 349.012 84.75H348.501V112.636H336.16ZM348.262 66.8182C348.262 70.2045 348.739 73.1705 349.694 75.7159C350.671 78.2614 352.069 80.25 353.887 81.6818C355.728 83.0909 357.955 83.7955 360.569 83.7955C363.296 83.7955 365.58 83.0682 367.421 81.6136C369.262 80.1364 370.648 78.125 371.58 75.5795C372.535 73.0114 373.012 70.0909 373.012 66.8182C373.012 63.5682 372.546 60.6818 371.614 58.1591C370.682 55.6364 369.296 53.6591 367.455 52.2273C365.614 50.7955 363.319 50.0795 360.569 50.0795C357.932 50.0795 355.694 50.7727 353.853 52.1591C352.012 53.5455 350.614 55.4886 349.66 57.9886C348.728 60.4886 348.262 63.4318 348.262 66.8182ZM393.28 93V40.6364H405.621V93H393.28ZM399.484 33.2045C397.53 33.2045 395.848 32.5568 394.439 31.2614C393.03 29.9432 392.325 28.3636 392.325 26.5227C392.325 24.6591 393.03 23.0795 394.439 21.7841C395.848 20.4659 397.53 19.8068 399.484 19.8068C401.461 19.8068 403.143 20.4659 404.53 21.7841C405.939 23.0795 406.643 24.6591 406.643 26.5227C406.643 28.3636 405.939 29.9432 404.53 31.2614C403.143 32.5568 401.461 33.2045 399.484 33.2045ZM427.772 23.1818V93H415.431V23.1818H427.772ZM460.423 94.0227C455.309 94.0227 450.878 92.8977 447.128 90.6477C443.378 88.3977 440.469 85.25 438.4 81.2045C436.355 77.1591 435.332 72.4318 435.332 67.0227C435.332 61.6136 436.355 56.875 438.4 52.8068C440.469 48.7386 443.378 45.5795 447.128 43.3295C450.878 41.0795 455.309 39.9545 460.423 39.9545C465.537 39.9545 469.969 41.0795 473.719 43.3295C477.469 45.5795 480.366 48.7386 482.412 52.8068C484.48 56.875 485.514 61.6136 485.514 67.0227C485.514 72.4318 484.48 77.1591 482.412 81.2045C480.366 85.25 477.469 88.3977 473.719 90.6477C469.969 92.8977 465.537 94.0227 460.423 94.0227ZM460.491 84.1364C463.264 84.1364 465.582 83.375 467.446 81.8523C469.309 80.3068 470.696 78.2386 471.605 75.6477C472.537 73.0568 473.003 70.1705 473.003 66.9886C473.003 63.7841 472.537 60.8864 471.605 58.2955C470.696 55.6818 469.309 53.6023 467.446 52.0568C465.582 50.5114 463.264 49.7386 460.491 49.7386C457.65 49.7386 455.287 50.5114 453.4 52.0568C451.537 53.6023 450.139 55.6818 449.207 58.2955C448.298 60.8864 447.844 63.7841 447.844 66.9886C447.844 70.1705 448.298 73.0568 449.207 75.6477C450.139 78.2386 451.537 80.3068 453.4 81.8523C455.287 83.375 457.65 84.1364 460.491 84.1364ZM519.256 40.6364V50.1818H489.154V40.6364H519.256ZM496.586 28.0909H508.927V77.25C508.927 78.9091 509.177 80.1818 509.677 81.0682C510.199 81.9318 510.881 82.5227 511.722 82.8409C512.563 83.1591 513.495 83.3182 514.517 83.3182C515.29 83.3182 515.995 83.2614 516.631 83.1477C517.29 83.0341 517.79 82.9318 518.131 82.8409L520.211 92.4886C519.552 92.7159 518.608 92.9659 517.381 93.2386C516.177 93.5114 514.699 93.6705 512.949 93.7159C509.858 93.8068 507.074 93.3409 504.597 92.3182C502.12 91.2727 500.154 89.6591 498.699 87.4773C497.267 85.2955 496.563 82.5682 496.586 79.2955V28.0909Z" fill="black"/>
</svg>
